<svg width="126" height="24" viewBox="0 0 126 24" fill="none" xmlns="http://www.w3.org/2000/svg">
<path fill-rule="evenodd" clip-rule="evenodd" d="M12.7753 2.75072C13.9069 1.65777 15.4225 1.053 16.9957 1.06667C18.5689 1.08034 20.0738 1.71136 21.1862 2.8238C22.2986 3.93625 22.9297 5.44113 22.9433 7.01431C22.957 8.58749 22.3522 10.1031 21.2593 11.2347L21.2471 11.2471L18.2472 14.247C17.639 14.8555 16.907 15.326 16.1008 15.6267C15.2947 15.9274 14.4334 16.0512 13.5752 15.9898C12.717 15.9283 11.8821 15.683 11.1271 15.2705C10.3721 14.858 9.71458 14.2879 9.19923 13.599C8.86843 13.1567 8.95877 12.53 9.40102 12.1992C9.84327 11.8684 10.47 11.9588 10.8008 12.401C11.1443 12.8603 11.5826 13.2404 12.086 13.5154C12.5894 13.7904 13.146 13.9539 13.7181 13.9949C14.2902 14.0359 14.8644 13.9533 15.4018 13.7529C15.9392 13.5524 16.4273 13.2387 16.8328 12.833L16.8329 12.8329L19.8264 9.83938C20.5514 9.08561 20.9525 8.07774 20.9434 7.03169C20.9343 5.9829 20.5136 4.97965 19.772 4.23802C19.0304 3.49639 18.0271 3.07571 16.9783 3.0666C15.9318 3.0575 14.9235 3.45891 14.1696 4.18454L12.455 5.88917C12.0634 6.27855 11.4302 6.27671 11.0408 5.88505C10.6514 5.49338 10.6533 4.86022 11.045 4.47084L12.765 2.76084L12.7753 2.75072Z" fill="white"/>
<path fill-rule="evenodd" clip-rule="evenodd" d="M7.89914 8.37328C8.70525 8.07258 9.5666 7.94876 10.4248 8.01022C11.2829 8.07168 12.1179 8.31698 12.8729 8.72949C13.6279 9.142 14.2854 9.71206 14.8008 10.401C15.1316 10.8433 15.0412 11.47 14.599 11.8008C14.1567 12.1316 13.53 12.0412 13.1992 11.599C12.8557 11.1397 12.4173 10.7596 11.914 10.4846C11.4106 10.2096 10.854 10.0461 10.2819 10.0051C9.70979 9.96413 9.13555 10.0467 8.59814 10.2471C8.06074 10.4476 7.57273 10.7613 7.16722 11.167L4.17358 14.1606C3.44854 14.9144 3.04749 15.9223 3.05658 16.9683C3.06569 18.0171 3.48637 19.0204 4.228 19.762C4.96963 20.5036 5.97288 20.9243 7.02167 20.9334C8.06771 20.9425 9.07558 20.5414 9.82935 19.8164L11.5329 18.1129C11.9234 17.7224 12.5566 17.7224 12.9471 18.1129C13.3376 18.5034 13.3376 19.1366 12.9471 19.5271L11.2371 21.2371L11.2247 21.2493C10.0931 22.3422 8.57747 22.947 7.00429 22.9333C5.43111 22.9197 3.92624 22.2886 2.81379 21.1762C1.70134 20.0637 1.07032 18.5589 1.05665 16.9857C1.04298 15.4125 1.64775 13.8969 2.7407 12.7653L2.75288 12.7529L5.75275 9.75302C5.75279 9.75297 5.75271 9.75306 5.75275 9.75302C6.36099 9.1446 7.09308 8.67396 7.89914 8.37328Z" fill="white"/>
<path d="M43.7784 9C43.7405 8.52652 43.563 8.1572 43.2457 7.89205C42.9332 7.6269 42.4574 7.49432 41.8182 7.49432C41.411 7.49432 41.0772 7.54404 40.8168 7.64347C40.5611 7.73817 40.3717 7.86837 40.2486 8.03409C40.1255 8.19981 40.0615 8.38921 40.0568 8.60227C40.0473 8.77746 40.0781 8.93608 40.1491 9.07813C40.2249 9.21544 40.3433 9.34091 40.5043 9.45455C40.6652 9.56345 40.8712 9.66288 41.1222 9.75284C41.3731 9.84281 41.6714 9.9233 42.017 9.99432L43.2102 10.25C44.0151 10.4205 44.7041 10.6454 45.277 10.9247C45.8499 11.2041 46.3186 11.5331 46.6832 11.9119C47.0478 12.286 47.3153 12.7074 47.4858 13.1761C47.661 13.6449 47.7509 14.1563 47.7557 14.7102C47.7509 15.6667 47.5118 16.4763 47.0383 17.1392C46.5649 17.8021 45.8878 18.3063 45.0071 18.652C44.1312 18.9976 43.0776 19.1705 41.8466 19.1705C40.5824 19.1705 39.4792 18.9834 38.5369 18.6094C37.5994 18.2353 36.8703 17.66 36.3494 16.8835C35.8333 16.1023 35.5729 15.1032 35.5682 13.8864H39.3182C39.3419 14.3314 39.4531 14.7055 39.652 15.0085C39.8508 15.3116 40.1302 15.5412 40.4901 15.6974C40.8546 15.8537 41.2879 15.9318 41.7898 15.9318C42.2112 15.9318 42.5639 15.8797 42.848 15.7756C43.1321 15.6714 43.3475 15.527 43.4943 15.3423C43.6411 15.1577 43.7169 14.947 43.7216 14.7102C43.7169 14.4877 43.6435 14.2936 43.5014 14.1278C43.3641 13.9574 43.1368 13.8059 42.8196 13.6733C42.5024 13.536 42.0739 13.4081 41.5341 13.2898L40.0852 12.9773C38.7973 12.6979 37.7817 12.2315 37.0383 11.5781C36.2997 10.92 35.9328 10.0227 35.9375 8.88637C35.9328 7.96307 36.179 7.15578 36.6761 6.46449C37.178 5.76847 37.8717 5.22633 38.7571 4.83807C39.6472 4.44981 40.6676 4.25568 41.8182 4.25568C42.9924 4.25568 44.008 4.45218 44.8651 4.84517C45.7221 5.23817 46.3826 5.79214 46.8466 6.50711C47.3153 7.21733 47.5521 8.0483 47.5568 9H43.7784Z" fill="white"/>
<path d="M49.2578 19V4.45455H53.2067V10.1364H58.4339V4.45455H62.3828V19H58.4339V13.3182H53.2067V19H49.2578Z" fill="white"/>
<path d="M78.3487 11.7273C78.3487 13.3466 78.0339 14.7126 77.4041 15.8253C76.7744 16.9332 75.9245 17.7737 74.8544 18.3466C73.7843 18.9148 72.5911 19.1989 71.2749 19.1989C69.9491 19.1989 68.7512 18.9124 67.6811 18.3395C66.6158 17.7618 65.7682 16.919 65.1385 15.8111C64.5135 14.6984 64.201 13.3371 64.201 11.7273C64.201 10.108 64.5135 8.74432 65.1385 7.63637C65.7682 6.52368 66.6158 5.68324 67.6811 5.11506C68.7512 4.54214 69.9491 4.25568 71.2749 4.25568C72.5911 4.25568 73.7843 4.54214 74.8544 5.11506C75.9245 5.68324 76.7744 6.52368 77.4041 7.63637C78.0339 8.74432 78.3487 10.108 78.3487 11.7273ZM74.2862 11.7273C74.2862 10.8561 74.1702 10.1222 73.9382 9.52557C73.7109 8.92424 73.3724 8.4697 72.9226 8.16193C72.4775 7.84943 71.9283 7.69318 71.2749 7.69318C70.6214 7.69318 70.0698 7.84943 69.62 8.16193C69.1749 8.4697 68.8364 8.92424 68.6044 9.52557C68.3771 10.1222 68.2635 10.8561 68.2635 11.7273C68.2635 12.5985 68.3771 13.3348 68.6044 13.9361C68.8364 14.5327 69.1749 14.9872 69.62 15.2997C70.0698 15.6075 70.6214 15.7614 71.2749 15.7614C71.9283 15.7614 72.4775 15.6075 72.9226 15.2997C73.3724 14.9872 73.7109 14.5327 73.9382 13.9361C74.1702 13.3348 74.2862 12.5985 74.2862 11.7273Z" fill="white"/>
<path d="M80.1758 19V4.45455H86.4542C87.5337 4.45455 88.4783 4.65104 89.288 5.04404C90.0977 5.43703 90.7274 6.00284 91.1772 6.74148C91.627 7.48012 91.8519 8.36553 91.8519 9.39773C91.8519 10.4394 91.6199 11.3177 91.1559 12.0327C90.6966 12.7476 90.0503 13.2874 89.217 13.652C88.3884 14.0166 87.4201 14.1989 86.3121 14.1989H82.5621V11.1307H85.5167C85.9807 11.1307 86.3761 11.0739 86.7028 10.9602C87.0342 10.8419 87.2875 10.6548 87.4627 10.3991C87.6426 10.1435 87.7326 9.80966 87.7326 9.39773C87.7326 8.98106 87.6426 8.64252 87.4627 8.38211C87.2875 8.11695 87.0342 7.92282 86.7028 7.79972C86.3761 7.67188 85.9807 7.60796 85.5167 7.60796H84.1246V19H80.1758ZM88.6985 12.3239L92.3349 19H88.0451L84.494 12.3239H88.6985Z" fill="white"/>
<path d="M93.1374 7.63637V4.45455H105.779V7.63637H101.404V19H97.5124V7.63637H93.1374Z" fill="white"/>
<path d="M111.214 4.45455V19H107.266V4.45455H111.214Z" fill="white"/>
<path d="M113.086 19V4.45455H123.569V7.63637H117.035V10.1364H123.029V13.3182H117.035V15.8182H123.54V19H113.086Z" fill="white"/>
</svg>
